<mxfile host="app.diagrams.net" agent="Mozilla/5.0 (Windows NT 10.0; Win64; x64; rv:139.0) Gecko/20100101 Firefox/139.0" version="27.1.4">
  <diagram name="Pagina-1" id="zTd8ogNlLjzsdBJeOwFS">
    <mxGraphModel dx="1426" dy="751" grid="1" gridSize="10" guides="1" tooltips="1" connect="1" arrows="1" fold="1" page="1" pageScale="1" pageWidth="827" pageHeight="1169" math="0" shadow="0">
      <root>
        <mxCell id="0" />
        <mxCell id="1" parent="0" />
        <mxCell id="6NuOI_jfBILMdRl15yHK-2" style="edgeStyle=orthogonalEdgeStyle;rounded=0;orthogonalLoop=1;jettySize=auto;html=1;exitX=0.5;exitY=1;exitDx=0;exitDy=0;" parent="1" source="6NuOI_jfBILMdRl15yHK-4" target="6NuOI_jfBILMdRl15yHK-1" edge="1">
          <mxGeometry relative="1" as="geometry">
            <Array as="points">
              <mxPoint x="605" y="450" />
            </Array>
          </mxGeometry>
        </mxCell>
        <mxCell id="TYeEJn4T7VQLtmHj-3OH-78" style="edgeStyle=orthogonalEdgeStyle;rounded=0;orthogonalLoop=1;jettySize=auto;html=1;entryX=0.5;entryY=0;entryDx=0;entryDy=0;" parent="1" target="TYeEJn4T7VQLtmHj-3OH-79" edge="1">
          <mxGeometry relative="1" as="geometry">
            <mxPoint x="720" y="640" as="sourcePoint" />
          </mxGeometry>
        </mxCell>
        <mxCell id="6NuOI_jfBILMdRl15yHK-1" value="" style="swimlane;startSize=0;" parent="1" vertex="1">
          <mxGeometry x="40" y="520" width="1180" height="830" as="geometry" />
        </mxCell>
        <mxCell id="TYeEJn4T7VQLtmHj-3OH-5" value="POST api/auth/logout" style="rounded=0;whiteSpace=wrap;html=1;" parent="6NuOI_jfBILMdRl15yHK-1" vertex="1">
          <mxGeometry x="760" y="220" width="140" height="60" as="geometry" />
        </mxCell>
        <mxCell id="TYeEJn4T7VQLtmHj-3OH-46" value="." style="swimlane;startSize=0;" parent="6NuOI_jfBILMdRl15yHK-1" vertex="1">
          <mxGeometry x="269" y="400" width="190" height="190" as="geometry" />
        </mxCell>
        <mxCell id="TYeEJn4T7VQLtmHj-3OH-47" value="Swipe Controller" style="rounded=0;whiteSpace=wrap;html=1;" parent="TYeEJn4T7VQLtmHj-3OH-46" vertex="1">
          <mxGeometry x="25" y="10" width="145" height="30" as="geometry" />
        </mxCell>
        <mxCell id="TYeEJn4T7VQLtmHj-3OH-48" value="POST api/swipe" style="rounded=0;whiteSpace=wrap;html=1;" parent="TYeEJn4T7VQLtmHj-3OH-46" vertex="1">
          <mxGeometry x="25" y="120" width="140" height="60" as="geometry" />
        </mxCell>
        <mxCell id="TYeEJn4T7VQLtmHj-3OH-49" value="GET api/utenti/discover" style="rounded=0;whiteSpace=wrap;html=1;" parent="TYeEJn4T7VQLtmHj-3OH-46" vertex="1">
          <mxGeometry x="25" y="50" width="140" height="60" as="geometry" />
        </mxCell>
        <mxCell id="TYeEJn4T7VQLtmHj-3OH-55" style="edgeStyle=orthogonalEdgeStyle;rounded=0;orthogonalLoop=1;jettySize=auto;html=1;exitX=0.5;exitY=1;exitDx=0;exitDy=0;" parent="6NuOI_jfBILMdRl15yHK-1" source="TYeEJn4T7VQLtmHj-3OH-46" target="TYeEJn4T7VQLtmHj-3OH-46" edge="1">
          <mxGeometry relative="1" as="geometry" />
        </mxCell>
        <mxCell id="TYeEJn4T7VQLtmHj-3OH-43" value="" style="swimlane;startSize=0;" parent="6NuOI_jfBILMdRl15yHK-1" vertex="1">
          <mxGeometry x="20" y="29" width="190" height="540" as="geometry" />
        </mxCell>
        <mxCell id="TYeEJn4T7VQLtmHj-3OH-44" value="Utenti Controller" style="rounded=0;whiteSpace=wrap;html=1;" parent="TYeEJn4T7VQLtmHj-3OH-43" vertex="1">
          <mxGeometry x="25" y="10" width="145" height="30" as="geometry" />
        </mxCell>
        <mxCell id="TYeEJn4T7VQLtmHj-3OH-26" value="PUT api/utenti/me" style="rounded=0;whiteSpace=wrap;html=1;" parent="TYeEJn4T7VQLtmHj-3OH-43" vertex="1">
          <mxGeometry x="25" y="120" width="140" height="60" as="geometry" />
        </mxCell>
        <mxCell id="TYeEJn4T7VQLtmHj-3OH-25" value="GET api/utenti/me" style="rounded=0;whiteSpace=wrap;html=1;" parent="TYeEJn4T7VQLtmHj-3OH-43" vertex="1">
          <mxGeometry x="25" y="50" width="140" height="60" as="geometry" />
        </mxCell>
        <mxCell id="TYeEJn4T7VQLtmHj-3OH-27" value="GET api/utenti/me/{id}" style="rounded=0;whiteSpace=wrap;html=1;" parent="TYeEJn4T7VQLtmHj-3OH-43" vertex="1">
          <mxGeometry x="25" y="190" width="140" height="60" as="geometry" />
        </mxCell>
        <mxCell id="TYeEJn4T7VQLtmHj-3OH-28" value="GET api/utenti/premium/who-liked-me" style="rounded=0;whiteSpace=wrap;html=1;" parent="TYeEJn4T7VQLtmHj-3OH-43" vertex="1">
          <mxGeometry x="25" y="260" width="140" height="60" as="geometry" />
        </mxCell>
        <mxCell id="TYeEJn4T7VQLtmHj-3OH-29" value="GET api/utenti/premium/boost-profile" style="rounded=0;whiteSpace=wrap;html=1;" parent="TYeEJn4T7VQLtmHj-3OH-43" vertex="1">
          <mxGeometry x="25" y="330" width="140" height="60" as="geometry" />
        </mxCell>
        <mxCell id="TYeEJn4T7VQLtmHj-3OH-30" value="POST api/utenti//me/foto" style="rounded=0;whiteSpace=wrap;html=1;" parent="TYeEJn4T7VQLtmHj-3OH-43" vertex="1">
          <mxGeometry x="25" y="400" width="140" height="60" as="geometry" />
        </mxCell>
        <mxCell id="TYeEJn4T7VQLtmHj-3OH-31" value="DELETE api/utenti/me/foto" style="rounded=0;whiteSpace=wrap;html=1;" parent="TYeEJn4T7VQLtmHj-3OH-43" vertex="1">
          <mxGeometry x="25" y="470" width="140" height="60" as="geometry" />
        </mxCell>
        <mxCell id="TYeEJn4T7VQLtmHj-3OH-58" value="" style="swimlane;startSize=0;" parent="6NuOI_jfBILMdRl15yHK-1" vertex="1">
          <mxGeometry x="870" y="400" width="190" height="400" as="geometry" />
        </mxCell>
        <mxCell id="TYeEJn4T7VQLtmHj-3OH-59" value="Match Controller" style="rounded=0;whiteSpace=wrap;html=1;" parent="TYeEJn4T7VQLtmHj-3OH-58" vertex="1">
          <mxGeometry x="20" y="10" width="145" height="30" as="geometry" />
        </mxCell>
        <mxCell id="TYeEJn4T7VQLtmHj-3OH-60" value="GET match/{matchId}" style="rounded=0;whiteSpace=wrap;html=1;" parent="TYeEJn4T7VQLtmHj-3OH-58" vertex="1">
          <mxGeometry x="25" y="120" width="140" height="60" as="geometry" />
        </mxCell>
        <mxCell id="TYeEJn4T7VQLtmHj-3OH-61" value="GET api/match" style="rounded=0;whiteSpace=wrap;html=1;" parent="TYeEJn4T7VQLtmHj-3OH-58" vertex="1">
          <mxGeometry x="25" y="50" width="140" height="60" as="geometry" />
        </mxCell>
        <mxCell id="TYeEJn4T7VQLtmHj-3OH-62" value="DELETE match/{matchId}" style="rounded=0;whiteSpace=wrap;html=1;" parent="TYeEJn4T7VQLtmHj-3OH-58" vertex="1">
          <mxGeometry x="25" y="190" width="145" height="60" as="geometry" />
        </mxCell>
        <mxCell id="TYeEJn4T7VQLtmHj-3OH-63" value="GET match/{matchId}/messaggi" style="rounded=0;whiteSpace=wrap;html=1;" parent="TYeEJn4T7VQLtmHj-3OH-58" vertex="1">
          <mxGeometry x="25" y="260" width="140" height="60" as="geometry" />
        </mxCell>
        <mxCell id="TYeEJn4T7VQLtmHj-3OH-64" value="POST match/{matchId}/messaggi" style="rounded=0;whiteSpace=wrap;html=1;" parent="TYeEJn4T7VQLtmHj-3OH-58" vertex="1">
          <mxGeometry x="25" y="330" width="140" height="60" as="geometry" />
        </mxCell>
        <mxCell id="TYeEJn4T7VQLtmHj-3OH-79" value="" style="swimlane;startSize=0;" parent="6NuOI_jfBILMdRl15yHK-1" vertex="1">
          <mxGeometry x="650" y="330" width="190" height="120" as="geometry" />
        </mxCell>
        <mxCell id="TYeEJn4T7VQLtmHj-3OH-80" value="Stripe Controller" style="rounded=0;whiteSpace=wrap;html=1;" parent="TYeEJn4T7VQLtmHj-3OH-79" vertex="1">
          <mxGeometry x="20" y="10" width="145" height="30" as="geometry" />
        </mxCell>
        <mxCell id="TYeEJn4T7VQLtmHj-3OH-82" value="POST api/stripe/createCheckoutSession" style="rounded=0;whiteSpace=wrap;html=1;" parent="TYeEJn4T7VQLtmHj-3OH-79" vertex="1">
          <mxGeometry x="25" y="50" width="140" height="60" as="geometry" />
        </mxCell>
        <mxCell id="6NuOI_jfBILMdRl15yHK-16" value="." style="swimlane;startSize=0;" parent="6NuOI_jfBILMdRl15yHK-1" vertex="1">
          <mxGeometry x="269" y="180" width="190" height="190" as="geometry" />
        </mxCell>
        <mxCell id="6NuOI_jfBILMdRl15yHK-17" value="Preferenze Controller" style="rounded=0;whiteSpace=wrap;html=1;" parent="6NuOI_jfBILMdRl15yHK-16" vertex="1">
          <mxGeometry x="25" y="10" width="145" height="30" as="geometry" />
        </mxCell>
        <mxCell id="6NuOI_jfBILMdRl15yHK-18" value="PUT api/preferenze" style="rounded=0;whiteSpace=wrap;html=1;" parent="6NuOI_jfBILMdRl15yHK-16" vertex="1">
          <mxGeometry x="25" y="120" width="140" height="60" as="geometry" />
        </mxCell>
        <mxCell id="6NuOI_jfBILMdRl15yHK-19" value="GET api/preferenze/me" style="rounded=0;whiteSpace=wrap;html=1;" parent="6NuOI_jfBILMdRl15yHK-16" vertex="1">
          <mxGeometry x="25" y="50" width="140" height="60" as="geometry" />
        </mxCell>
        <mxCell id="6NuOI_jfBILMdRl15yHK-20" style="edgeStyle=orthogonalEdgeStyle;rounded=0;orthogonalLoop=1;jettySize=auto;html=1;exitX=0.5;exitY=1;exitDx=0;exitDy=0;" parent="6NuOI_jfBILMdRl15yHK-1" source="6NuOI_jfBILMdRl15yHK-16" target="6NuOI_jfBILMdRl15yHK-16" edge="1">
          <mxGeometry relative="1" as="geometry" />
        </mxCell>
        <mxCell id="i-C67bJ2zKy4lFZnUcYV-54" value="." style="swimlane;startSize=0;" vertex="1" parent="6NuOI_jfBILMdRl15yHK-1">
          <mxGeometry x="470" y="29" width="190" height="261" as="geometry" />
        </mxCell>
        <mxCell id="i-C67bJ2zKy4lFZnUcYV-55" value="Abbonamento Controller" style="rounded=0;whiteSpace=wrap;html=1;" vertex="1" parent="i-C67bJ2zKy4lFZnUcYV-54">
          <mxGeometry x="25" y="10" width="145" height="30" as="geometry" />
        </mxCell>
        <mxCell id="i-C67bJ2zKy4lFZnUcYV-56" value="GET api/status" style="rounded=0;whiteSpace=wrap;html=1;" vertex="1" parent="i-C67bJ2zKy4lFZnUcYV-54">
          <mxGeometry x="25" y="120" width="140" height="60" as="geometry" />
        </mxCell>
        <mxCell id="i-C67bJ2zKy4lFZnUcYV-57" value="POST api/premium/upgrade" style="rounded=0;whiteSpace=wrap;html=1;" vertex="1" parent="i-C67bJ2zKy4lFZnUcYV-54">
          <mxGeometry x="25" y="50" width="140" height="60" as="geometry" />
        </mxCell>
        <mxCell id="i-C67bJ2zKy4lFZnUcYV-59" value="GET api/subscriptionHistory" style="rounded=0;whiteSpace=wrap;html=1;" vertex="1" parent="i-C67bJ2zKy4lFZnUcYV-54">
          <mxGeometry x="25" y="191" width="140" height="60" as="geometry" />
        </mxCell>
        <mxCell id="i-C67bJ2zKy4lFZnUcYV-58" style="edgeStyle=orthogonalEdgeStyle;rounded=0;orthogonalLoop=1;jettySize=auto;html=1;exitX=0.5;exitY=1;exitDx=0;exitDy=0;" edge="1" parent="6NuOI_jfBILMdRl15yHK-1" source="i-C67bJ2zKy4lFZnUcYV-54" target="i-C67bJ2zKy4lFZnUcYV-54">
          <mxGeometry relative="1" as="geometry" />
        </mxCell>
        <mxCell id="6NuOI_jfBILMdRl15yHK-4" value="" style="swimlane;startSize=0;" parent="1" vertex="1">
          <mxGeometry x="397" y="20" width="430" height="430" as="geometry" />
        </mxCell>
        <mxCell id="6NuOI_jfBILMdRl15yHK-13" style="edgeStyle=orthogonalEdgeStyle;rounded=0;orthogonalLoop=1;jettySize=auto;html=1;entryX=0;entryY=0.5;entryDx=0;entryDy=0;" parent="6NuOI_jfBILMdRl15yHK-4" source="TYeEJn4T7VQLtmHj-3OH-20" target="6NuOI_jfBILMdRl15yHK-5" edge="1">
          <mxGeometry relative="1" as="geometry" />
        </mxCell>
        <mxCell id="TYeEJn4T7VQLtmHj-3OH-20" value="" style="swimlane;startSize=0;" parent="6NuOI_jfBILMdRl15yHK-4" vertex="1">
          <mxGeometry x="40" y="20" width="190" height="260" as="geometry" />
        </mxCell>
        <mxCell id="TYeEJn4T7VQLtmHj-3OH-1" value="POST api/auth/register" style="rounded=0;whiteSpace=wrap;html=1;" parent="TYeEJn4T7VQLtmHj-3OH-20" vertex="1">
          <mxGeometry x="24" y="50" width="140" height="60" as="geometry" />
        </mxCell>
        <mxCell id="TYeEJn4T7VQLtmHj-3OH-2" value="POST api/auth/login" style="rounded=0;whiteSpace=wrap;html=1;" parent="TYeEJn4T7VQLtmHj-3OH-20" vertex="1">
          <mxGeometry x="24" y="120" width="140" height="60" as="geometry" />
        </mxCell>
        <mxCell id="TYeEJn4T7VQLtmHj-3OH-7" style="edgeStyle=orthogonalEdgeStyle;rounded=0;orthogonalLoop=1;jettySize=auto;html=1;entryX=0.5;entryY=0;entryDx=0;entryDy=0;" parent="TYeEJn4T7VQLtmHj-3OH-20" source="TYeEJn4T7VQLtmHj-3OH-1" target="TYeEJn4T7VQLtmHj-3OH-2" edge="1">
          <mxGeometry relative="1" as="geometry" />
        </mxCell>
        <mxCell id="TYeEJn4T7VQLtmHj-3OH-10" value="GET api/auth/validate" style="rounded=0;whiteSpace=wrap;html=1;" parent="TYeEJn4T7VQLtmHj-3OH-20" vertex="1">
          <mxGeometry x="24" y="190" width="140" height="60" as="geometry" />
        </mxCell>
        <mxCell id="TYeEJn4T7VQLtmHj-3OH-12" style="edgeStyle=orthogonalEdgeStyle;rounded=0;orthogonalLoop=1;jettySize=auto;html=1;entryX=0.5;entryY=0;entryDx=0;entryDy=0;" parent="TYeEJn4T7VQLtmHj-3OH-20" source="TYeEJn4T7VQLtmHj-3OH-2" target="TYeEJn4T7VQLtmHj-3OH-10" edge="1">
          <mxGeometry relative="1" as="geometry" />
        </mxCell>
        <mxCell id="TYeEJn4T7VQLtmHj-3OH-21" value="Auth Controller" style="rounded=0;whiteSpace=wrap;html=1;" parent="TYeEJn4T7VQLtmHj-3OH-20" vertex="1">
          <mxGeometry x="25" y="10" width="140" height="30" as="geometry" />
        </mxCell>
        <mxCell id="6NuOI_jfBILMdRl15yHK-11" style="edgeStyle=orthogonalEdgeStyle;rounded=0;orthogonalLoop=1;jettySize=auto;html=1;exitX=0.75;exitY=0;exitDx=0;exitDy=0;entryX=0.716;entryY=0;entryDx=0;entryDy=0;entryPerimeter=0;" parent="6NuOI_jfBILMdRl15yHK-4" source="TYeEJn4T7VQLtmHj-3OH-20" target="TYeEJn4T7VQLtmHj-3OH-20" edge="1">
          <mxGeometry relative="1" as="geometry" />
        </mxCell>
        <mxCell id="6NuOI_jfBILMdRl15yHK-5" value="POST api/auth/logout" style="rounded=0;whiteSpace=wrap;html=1;" parent="6NuOI_jfBILMdRl15yHK-4" vertex="1">
          <mxGeometry x="280" y="125" width="135" height="50" as="geometry" />
        </mxCell>
        <mxCell id="i-C67bJ2zKy4lFZnUcYV-8" value="" style="swimlane;startSize=0;" vertex="1" parent="1">
          <mxGeometry x="1020" y="630" width="190" height="260" as="geometry" />
        </mxCell>
        <mxCell id="i-C67bJ2zKy4lFZnUcYV-9" value="Report Controller" style="rounded=0;whiteSpace=wrap;html=1;" vertex="1" parent="i-C67bJ2zKy4lFZnUcYV-8">
          <mxGeometry x="20" y="10" width="145" height="30" as="geometry" />
        </mxCell>
        <mxCell id="i-C67bJ2zKy4lFZnUcYV-10" value="GET api/admin/report" style="rounded=0;whiteSpace=wrap;html=1;" vertex="1" parent="i-C67bJ2zKy4lFZnUcYV-8">
          <mxGeometry x="25" y="120" width="140" height="60" as="geometry" />
        </mxCell>
        <mxCell id="i-C67bJ2zKy4lFZnUcYV-11" value="POST api/report" style="rounded=0;whiteSpace=wrap;html=1;" vertex="1" parent="i-C67bJ2zKy4lFZnUcYV-8">
          <mxGeometry x="25" y="50" width="140" height="60" as="geometry" />
        </mxCell>
        <mxCell id="i-C67bJ2zKy4lFZnUcYV-12" value="GET api/admin/report/all" style="rounded=0;whiteSpace=wrap;html=1;" vertex="1" parent="i-C67bJ2zKy4lFZnUcYV-8">
          <mxGeometry x="25" y="190" width="145" height="60" as="geometry" />
        </mxCell>
        <mxCell id="i-C67bJ2zKy4lFZnUcYV-15" style="edgeStyle=orthogonalEdgeStyle;rounded=0;orthogonalLoop=1;jettySize=auto;html=1;exitX=0.25;exitY=0;exitDx=0;exitDy=0;entryX=0.316;entryY=0;entryDx=0;entryDy=0;entryPerimeter=0;" edge="1" parent="1" source="i-C67bJ2zKy4lFZnUcYV-8" target="i-C67bJ2zKy4lFZnUcYV-8">
          <mxGeometry relative="1" as="geometry" />
        </mxCell>
      </root>
    </mxGraphModel>
  </diagram>
</mxfile>
